:SAMPLES-PER-SECOND 24
:FULLY-SPECIFIED
:DEGREES
119
root  6.05154 39.5699 2.84498 5.93311 -5.50946 -0.762695
RightUpLeg  -8.74469 7.6669 -3.84439
RightLeg  16.6144 -7.35776 -3.11867
RightFoot  -13.1963 -0.0608676 1.79038
RightToes  -2.08645e-008 3.77894e-005 6.81332e-007
Spine  4.55814 -2.24243 -3.61021
Spine1  4.83726 -4.14323 7.60333
HEad  -31.0962 10.4714 -2.01495
LeftShoulder1  7.89582 -13.7487 -39.5843
LeftArm  7.05229 23.239 -31.2591
LeftForeArm  157.21 -73.7394 -145.018
LeftHand  -0.645257 -1.6077 10.877
RightShoulder  4.08742 6.75943 33.9375
RightArm  13.3023 -9.13361 38.9033
RightForeArm  93.7634 80.2763 84.7969
RightHand  -0.825887 7.05872 -8.02599
LeftUpLeg  -16.9199 13.6686 7.24462
LeftLeg  37.7479 15.277 12.6937
LeftFoot  -2.89902 0.858436 -11.3795
LeftToes  1.24767e-006 1.47042e-008 1.32732e-009
120
root  5.87697 39.9169 3.42146 7.23657 -4.28241 -0.509644
RightUpLeg  -6.15321 1.86689 -3.15646
RightLeg  10.5921 -3.03014 -3.21185
RightFoot  -11.3804 -0.0773085 2.57225
RightToes  -2.08645e-008 3.77894e-005 6.81332e-007
Spine  2.30311 -1.31526 -2.80052
Spine1  4.92635 -2.79657 6.22098
HEad  -28.9542 7.79731 -2.10226
LeftShoulder1  7.66289 -13.5409 -38.8141
LeftArm  9.50311 27.556 -30.1437
LeftForeArm  155.244 -74.5835 -142.732
LeftHand  -0.604698 -2.1956 9.45981
RightShoulder  4.04748 6.6996 33.7809
RightArm  12.7762 -12.9504 38.2495
RightForeArm  102.169 80.2956 93.409
RightHand  -0.82504 7.26539 -7.88929
LeftUpLeg  -18.425 16.3269 5.33292
LeftLeg  34.0839 16.0545 11.703
LeftFoot  -5.09274 0.684032 -11.9009
LeftToes  1.24767e-006 1.47042e-008 1.32732e-009
121
root  5.79343 40.0586 3.93407 8.47253 -2.7276 -0.444641
RightUpLeg  -4.11447 -2.04112 -3.17093
RightLeg  5.9096 -0.863337 -2.65755
RightFoot  -10.614 -0.0949576 3.61364
RightToes  -2.08645e-008 3.77894e-005 6.81332e-007
Spine  1.15067 -0.618465 -1.61018
Spine1  4.34015 -1.62193 4.32065
HEad  -28.1989 5.54802 -2.1462
LeftShoulder1  7.46517 -13.3827 -38.096
LeftArm  10.2215 31.8469 -27.5746
LeftForeArm  155.091 -74.6146 -142.626
LeftHand  -0.509636 -2.51045 7.70124
RightShoulder  4.00571 6.67703 33.4602
RightArm  13.4002 -14.5497 38.0543
RightForeArm  99.9506 80.321 91.026
RightHand  -0.856087 7.04586 -8.31581
LeftUpLeg  -20.2705 20.0285 2.94716
LeftLeg  31.0667 19.8068 12.7385
LeftFoot  -6.44243 0.452141 -9.62493
LeftToes  1.24767e-006 1.47042e-008 1.32732e-009
122
root  5.80978 40.0036 4.39501 8.96973 -0.939087 -1.19373
RightUpLeg  -2.18208 -3.02507 -2.81244
RightLeg  3.18192 -1.51268 -1.63173
RightFoot  -10.8458 -0.0915858 4.15389
RightToes  -2.08645e-008 3.77894e-005 6.81332e-007
Spine  1.07739 -0.230159 0.224814
Spine1  4.68031 -0.915983 2.68804
HEad  -29.6166 3.95327 -2.50325
LeftShoulder1  7.38078 -13.3145 -37.7858
LeftArm  9.61855 35.2974 -24.9154
LeftForeArm  154.012 -74.6166 -142.425
LeftHand  -0.508312 -2.35482 7.82823
RightShoulder  3.94088 6.63406 32.9884
RightArm  14.6245 -12.9218 38.7221
RightForeArm  85.1922 80.0338 76.0467
RightHand  -0.857541 6.86068 -8.44838
LeftUpLeg  -21.9914 24.0474 0.985295
LeftLeg  28.904 21.4105 12.6263
LeftFoot  -8.4209 0.272958 -8.72193
LeftToes  1.24767e-006 1.47042e-008 1.32732e-009
123
root  5.95009 39.8403 4.87653 9.59351 1.17084 -2.40253
RightUpLeg  -1.65365 -2.98239 -1.97328
RightLeg  3.14363 -3.13584 -0.881159
RightFoot  -11.6914 -0.0632778 5.11121
RightToes  -2.08645e-008 3.77894e-005 6.81332e-007
Spine  0.10177 0.108851 2.21044
Spine1  6.6516 -0.397738 1.45998
HEad  -31.767 1.83574 -2.83383
LeftShoulder1  7.40886 -13.3324 -37.9014
LeftArm  7.89555 37.1219 -23.7197
LeftForeArm  149.959 -76.056 -137.614
LeftHand  -0.569389 -2.22261 8.88546
RightShoulder  3.90916 6.59347 32.8309
RightArm  15.259 -10.3024 39.7337
RightForeArm  67.0412 78.5412 56.9457
RightHand  -0.819559 6.95577 -8.03643
LeftUpLeg  -24.8272 28.2638 -1.61125
LeftLeg  27.9982 20.693 11.8325
LeftFoot  -10.2986 0.144561 -9.05869
LeftToes  1.24767e-006 1.47042e-008 1.32732e-009
